<?xml version="1.0" standalone="no"?>
<!DOCTYPE svg PUBLIC "-//W3C//DTD SVG 20010904//EN"
 "http://www.w3.org/TR/2001/REC-SVG-20010904/DTD/svg10.dtd">
<svg version="1.0" xmlns="http://www.w3.org/2000/svg"
 width="36.000000pt" height="29.000000pt" viewBox="0 0 36.000000 29.000000"
 preserveAspectRatio="xMidYMid meet">
<metadata>
Created by potrace 1.16, written by Peter Selinger 2001-2019
</metadata>
<g transform="translate(0.000000,29.000000) scale(0.007031,-0.005664)"
fill="#000000" stroke="none">
<path d="M2325 4493 c-585 -72 -1063 -336 -1387 -768 -425 -565 -494 -1382
-172 -2028 93 -186 192 -323 355 -492 125 -129 129 -137 130 -310 1 -200 11
-278 43 -320 16 -20 31 -34 34 -30 4 3 0 10 -7 14 -9 6 -10 11 -2 15 6 4 11 2
11 -3 0 -6 3 -10 8 -10 20 3 31 -3 37 -21 12 -39 66 -25 294 74 119 51 228 96
243 100 17 4 72 -4 135 -18 193 -44 316 -58 508 -58 252 0 447 28 654 93 652
207 1124 702 1286 1349 77 308 77 674 -1 983 -30 120 -67 220 -99 268 -27 41
-233 249 -247 249 -5 0 -6 5 -3 10 3 6 1 10 -5 10 -7 0 -28 17 -48 38 -20 20
-40 37 -44 37 -4 0 -19 11 -32 25 -26 28 -36 36 -121 100 -33 25 -69 53 -80
63 -11 10 -32 25 -47 33 -16 8 -28 20 -28 26 0 6 -3 9 -6 5 -3 -3 -11 -2 -18
3 -58 47 -75 60 -81 60 -5 0 -22 10 -39 23 -17 13 -39 26 -48 30 -10 3 -18 11
-18 17 0 6 -4 8 -10 5 -5 -3 -10 -1 -10 4 0 6 -7 11 -15 11 -8 0 -15 5 -15 10
0 6 -7 10 -15 10 -8 0 -15 5 -15 11 0 5 -4 8 -8 5 -5 -3 -25 6 -45 19 -20 14
-41 25 -46 25 -6 0 -11 5 -11 11 0 5 -4 8 -8 5 -5 -3 -19 4 -30 15 -12 10 -25
20 -29 20 -15 1 -78 33 -85 43 -4 6 -8 7 -8 3 0 -4 -20 4 -43 18 -24 14 -52
25 -61 25 -9 0 -15 4 -12 8 2 4 -5 9 -16 9 -12 1 -24 7 -28 13 -4 7 -10 11
-14 11 -11 -2 -24 3 -61 19 -16 7 -33 13 -37 12 -5 -1 -8 2 -8 8 0 5 -16 12
-35 16 -19 3 -35 11 -35 17 0 6 -3 8 -6 4 -4 -3 -19 0 -35 9 -16 8 -29 12 -29
9 0 -3 -10 0 -22 7 -13 7 -26 13 -30 14 -5 1 -11 3 -15 4 -5 1 -11 2 -15 1 -3
0 -32 8 -64 19 -55 19 -191 25 -289 13z m1428 -1363 c44 -49 38 -70 -76 -251
-57 -90 -195 -310 -308 -489 -112 -178 -220 -340 -239 -360 -58 -58 -122 -84
-210 -83 -47 0 -89 6 -112 16 -20 9 -153 104 -296 211 -143 107 -274 197 -290
200 -15 4 -41 2 -56 -4 -15 -5 -177 -124 -359 -262 -301 -229 -336 -253 -371
-253 -30 0 -44 7 -67 33 -18 20 -29 44 -29 61 0 19 35 84 103 192 57 90 195
310 308 489 112 178 220 341 239 360 43 43 91 67 164 82 45 10 64 9 118 -6 58
-16 95 -39 331 -216 150 -112 279 -201 297 -205 21 -5 42 -1 68 12 20 10 179
127 352 259 173 133 322 244 330 247 29 12 75 -3 103 -33z"/>
</g>
</svg>
